<svg id="Layer_1" data-name="Layer 1" xmlns="http://www.w3.org/2000/svg" viewBox="0 0 122.88 73.14"><defs><style>.cls-1{fill-rule:evenodd;}</style></defs><title>logistic-truck</title><path class="cls-1" d="M41.63,58.19a12.9,12.9,0,1,0,25.64,2,13.7,13.7,0,0,0-.16-2H89.28a14.22,14.22,0,0,0-.12,1.87,13.08,13.08,0,0,0,26.16,0,12.7,12.7,0,0,0-.21-2.33,8,8,0,0,0,7.77-7.93V24.14L106.61,6.64H84.32V45.51h-80A3.27,3.27,0,0,0,1,48.68V55A3.27,3.27,0,0,0,4.31,58.2H7.94a12.48,12.48,0,0,0-.16,2,12.9,12.9,0,1,0,25.79,0,13.7,13.7,0,0,0-.16-2h8.22ZM76.48,0H4.1A4.12,4.12,0,0,0,0,4.1V42.27H80.58V4.1A4.11,4.11,0,0,0,76.48,0ZM15.71,60.26c0,6.53,9.92,6.53,9.92,0,0-7-9.92-6.27-9.92,0Zm81.49-.21c0,6.61,10.06,6.61,10.06,0s-10.06-6.65-10.06,0Zm9.33-45.85L114.74,24v3.56H92.49V14.2ZM49.42,60.26c0,6.53,9.92,6.53,9.92,0s-9.92-6.52-9.92,0Z"/></svg>