<?xml version="1.0" encoding="utf-8"?><svg version="1.1" id="Layer_1" xmlns="http://www.w3.org/2000/svg" xmlns:xlink="http://www.w3.org/1999/xlink" x="0px" y="0px" viewBox="0 0 108.24 122.88" style="enable-background:new 0 0 108.24 122.88" xml:space="preserve"><g><path d="M58.63,59.82c-0.39,0.72-1.29,0.98-2,0.59c-5.05-2.76-9.14-6.05-11.38-10.6c-2.05-4.16-2.51-9.28-0.71-15.86 c-3.23,0.34-6.97,1.48-10.82,2.65c-6.87,2.09-14.03,4.27-19.99,2.52c-0.69,1.36-1.21,2.83-1.59,4.39 c-0.49,2.02-0.74,4.19-0.81,6.47c-0.06,1.97-0.01,3.32,0.03,4.37c0.12,3.1,0.16,3.88-2.49,9.29l-4.66,9.52 c-0.03,0.08-0.07,0.15-0.12,0.22c-0.78,1.19-1.13,2.29-1.15,3.21c-0.01,0.53,0.09,0.99,0.28,1.37c0.16,0.33,0.39,0.6,0.68,0.8 c0.02,0.01,0.04,0.03,0.06,0.04c0.35,0.23,0.79,0.37,1.28,0.39c0.04,0,0.08,0,0.12,0l5.45,0.32c0.15-0.06,0.32-0.09,0.5-0.1 c0.05,0,0.1,0,0.15,0l0,0l4.95,0.42c0.81,0.07,1.42,0.78,1.35,1.6c-0.07,0.81-0.78,1.42-1.6,1.35l-0.08-0.01l-3.24-0.19l0.01,0.81 c0.03,2.56,0.07,5.09,0.29,7.65c1.41,0.69,2.77,1.11,4.08,1.24c1.47,0.15,2.9-0.07,4.29-0.68c0.75-0.33,1.62,0.01,1.95,0.76 c0.33,0.75-0.01,1.62-0.76,1.95c-1.86,0.82-3.79,1.11-5.77,0.92c-1.17-0.12-2.35-0.41-3.55-0.86c0.06,0.62,0.13,1.23,0.21,1.85 c0.18,1.37,0.43,2.77,0.74,4.19c0.09,0.39,0.01,0.78-0.19,1.1c-1.09,2.18-1.63,4.02-1.73,5.54c-0.11,1.65,0.35,2.9,1.23,3.8 c0.96,0.97,2.44,1.61,4.3,1.96c2.89,0.54,6.58,0.38,10.58-0.34c3.8-0.68,8.06-1.78,11.99-3.3c3.21-1.24,6.18-2.77,8.45-4.59 c2.28-1.82,3.31-4.75,4.19-7.25c0.17-0.49,0.34-0.96,0.43-1.2l0.25-0.68c1.06-2.92,2.45-7.08,4.79-8.88 c0.64-0.5,1.57-0.38,2.07,0.27s0.38,1.57-0.27,2.07c-1.66,1.28-2.86,4.92-3.82,7.55c-0.18,0.49-0.17,0.47-0.25,0.69 c-0.19,0.51-0.3,0.83-0.42,1.16c-1.01,2.87-2.19,6.24-5.13,8.59c-2.51,2.01-5.75,3.68-9.23,5.03c-0.88,0.34-1.78,0.66-2.69,0.96 c0.05,1.31,0.01,2.61-0.12,3.92c-0.16,1.69-0.47,3.34-0.9,4.97c-0.21,0.79-1.02,1.26-1.81,1.05s-1.26-1.02-1.05-1.81 c0.4-1.5,0.68-2.99,0.82-4.49c0.09-0.9,0.13-1.82,0.12-2.74c-2.36,0.66-4.71,1.19-6.92,1.59c-4.35,0.78-8.4,0.95-11.65,0.34 c-2.44-0.46-4.45-1.37-5.86-2.79c-1.48-1.5-2.24-3.5-2.07-6.06c0.12-1.81,0.71-3.9,1.87-6.32c-0.27-1.27-0.49-2.59-0.67-3.95 c-0.2-1.5-0.33-3.02-0.38-4.56l0,0c0-0.02,0-0.04,0-0.06c-0.02-0.07-0.03-0.14-0.03-0.21c-0.27-2.82-0.3-5.56-0.34-8.34l0.01-1.01 l-4.7-0.28H5.16c-1.07-0.04-2.02-0.34-2.81-0.86c-0.03-0.02-0.07-0.04-0.1-0.07c-0.71-0.49-1.28-1.15-1.67-1.94 c-0.39-0.8-0.6-1.72-0.58-2.74c0.03-1.43,0.52-3.04,1.58-4.69l4.64-9.49c2.32-4.73,2.29-5.37,2.19-7.88 c-0.04-1.09-0.1-2.49-0.03-4.57c0.08-2.48,0.36-4.85,0.89-7.07c0.41-1.7,0.97-3.31,1.71-4.82l-8.8-3.84 c-0.75-0.33-1.09-1.2-0.76-1.94c0.04-0.1,0.1-0.2,0.16-0.28c1.61-2.32,3.39-4.55,5.3-6.7c17-19.9,35.41-26.62,51.74-25.04 c17.15-0.11,33.9,7.95,45.18,28.35c5.77,10.44,5.36,22.39,1.97,33.27c-2.36,13.03-10.55,25.65-26.55,35.04 c-0.25,0.15-0.53,0.21-0.8,0.2c0,2.88,0.17,5.67,0.5,8.37c0.63,5.13,1.83,9.93,3.53,14.45c0.29,0.76-0.1,1.61-0.86,1.9 c-0.76,0.29-1.61-0.1-1.9-0.86c-1.79-4.75-3.05-9.78-3.7-15.13c-0.65-5.34-0.7-11.01-0.08-17.05c0.02-0.2,0.08-0.39,0.17-0.56 c0.55-5.26,2.7-9.86,4.41-15.67c2.94-7.36,3.21-13.3,0.47-15.51C74.21,51.57,64.23,57.67,58.63,59.82L58.63,59.82z M25.88,61.44 c-1.45,0-2.62,0.25-2.62,1.7c0,1.45,1.17,2.62,2.62,2.62c1.45,0,2.62-1.17,2.62-2.62C28.5,61.69,27.33,61.44,25.88,61.44 L25.88,61.44L25.88,61.44z M68.33,66.33c0.15,0.8-0.38,1.57-1.19,1.72c-0.8,0.15-1.57-0.38-1.72-1.19 c-0.21-1.13-0.14-2.21,0.13-3.19c0.39-1.38,1.2-2.57,2.26-3.47c1.04-0.88,2.33-1.49,3.71-1.74c1.15-0.21,2.37-0.17,3.55,0.16 c3.2,0.9,4.56,2.51,4.85,4.55c0.26,1.82-0.46,3.81-1.46,5.9c-0.89,1.87-4.31,9.02-7.69,13.37c-4.53,5.85-8.94,7.96-9.62-4.51 c-0.04-0.81,0.59-1.51,1.4-1.55c0.81-0.04,1.51,0.59,1.55,1.4c0.34,6.22,2.31,5.46,4.33,2.85c3.18-4.1,6.49-11.01,7.35-12.83 c0.78-1.65,1.36-3.14,1.21-4.24c-0.12-0.86-0.88-1.59-2.72-2.11c-0.74-0.21-1.51-0.23-2.22-0.1c-0.87,0.16-1.68,0.54-2.33,1.1 c-0.63,0.53-1.1,1.22-1.33,2.02C68.24,65.04,68.21,65.67,68.33,66.33L68.33,66.33L68.33,66.33z M33.31,57.44 c0.72,0.38,1,1.27,0.62,1.99c-0.38,0.72-1.27,1-1.99,0.62c-1.84-0.96-3.67-1.53-5.48-1.57h-0.01c-1.78-0.04-3.57,0.43-5.4,1.53 c-0.7,0.42-1.61,0.2-2.03-0.5c-0.42-0.7-0.2-1.61,0.5-2.03c2.33-1.4,4.66-2,6.99-1.95h0.01C28.83,55.59,31.08,56.28,33.31,57.44 L33.31,57.44L33.31,57.44z"/></g></svg>