<?xml version="1.0" encoding="utf-8"?><svg width="30px" version="1.1" id="Layer_1" xmlns="http://www.w3.org/2000/svg" xmlns:xlink="http://www.w3.org/1999/xlink" x="0px" y="0px" viewBox="0 0 122.88 117.83" style="enable-background:new 0 0 122.88 117.83" xml:space="preserve"><style type="text/css">.st0{fill-rule:evenodd;clip-rule:evenodd;}</style><g><path class="st0" d="M30.9,80.62l2.68,2.68c0.71,0.71,0.71,1.86,0,2.57l-2.16,2.16c0.6,1.13,1.06,2.33,1.34,3.57l2.8,0 c1,0,1.82,0.82,1.82,1.82v3.79c0,1-0.82,1.81-1.82,1.81H32.5c-0.37,1.22-0.9,2.39-1.58,3.47l1.98,1.98c0.71,0.71,0.71,1.86,0,2.57 l-2.68,2.68c-0.71,0.71-1.86,0.71-2.57,0l-2.16-2.16c-1.13,0.6-2.33,1.06-3.58,1.34v2.8c0,1-0.82,1.82-1.82,1.82l-3.79,0 c-1,0-1.81-0.82-1.81-1.82v-3.05c-1.22-0.37-2.39-0.9-3.47-1.58l-1.98,1.98c-0.71,0.71-1.86,0.71-2.57,0l-2.68-2.68 c-0.71-0.71-0.71-1.86,0-2.57l2.16-2.16c-0.6-1.13-1.06-2.33-1.34-3.57l-2.8,0c-1,0-1.82-0.82-1.82-1.82v-3.79 c0-1,0.82-1.81,1.82-1.81h3.05c0.37-1.22,0.9-2.39,1.58-3.47l-1.98-1.98c-0.71-0.71-0.71-1.86,0-2.57l2.68-2.68 c0.71-0.71,1.86-0.71,2.57,0l2.16,2.16c1.11-0.6,2.31-1.05,3.57-1.34v-2.8c0-1,0.82-1.82,1.82-1.82h3.79c1,0,1.81,0.82,1.81,1.82 v3.05c1.22,0.37,2.39,0.9,3.47,1.58l1.98-1.98C29.04,79.91,30.19,79.91,30.9,80.62L30.9,80.62L30.9,80.62z M95.34,98.89l3.39,9.98 l1.71-5.92l-0.84-0.92c-0.38-0.55-0.46-1.03-0.25-1.45c0.45-0.9,1.39-0.73,2.27-0.73c0.92,0,2.05-0.17,2.34,0.97 c0.1,0.38-0.02,0.79-0.29,1.2l-0.84,0.92l1.71,5.92l3.07-9.98c2.22,1.99,8.78,2.4,11.22,3.76c0.77,0.43,1.47,0.98,2.03,1.72 c0.85,1.12,1.37,2.59,1.52,4.46l0.51,1.81c-0.12,1.32-0.87,2.08-2.34,2.19H82.41c-1.47-0.11-2.22-0.87-2.34-2.19l0.51-1.81 c0.14-1.86,0.66-3.33,1.52-4.46c0.56-0.74,1.26-1.29,2.03-1.72C86.56,101.29,93.12,100.89,95.34,98.89L95.34,98.89L95.34,98.89z M93.51,84.56c0.32,0.13,0.66,0.16,1.01,0.09l-0.48-3.83c0.25-0.95,0.63-1.68,1.13-2.22c0.52-0.56,1.18-0.92,1.97-1.07 c1.04-0.07,1.35,0.69,2.39,1.35c3.16,2.02,5.83,2.7,9.74,2.75l-0.63,3.21c0.17,0.01,0.34,0.01,0.5-0.01 c0.05,0.01,0.09,0.01,0.14,0.01c0.72-0.07,1.16,0.01,1.29,0.28c0.17,0.33,0.03,0.99-0.42,2.03l-2.14,3.52 c-0.8,1.31-1.61,2.63-2.64,3.59c-1,0.93-2.22,1.55-3.9,1.55c-1.55,0-2.72-0.6-3.69-1.48c-1-0.91-1.8-2.15-2.56-3.36l-1.9-3.02h0 l-0.01-0.01c-0.59-0.88-0.9-1.65-0.92-2.24c-0.01-0.21,0.03-0.39,0.1-0.54c0.06-0.14,0.16-0.26,0.3-0.35 C92.98,84.68,93.21,84.6,93.51,84.56L93.51,84.56L93.51,84.56z M110.57,84.01l0.12-5c-0.14-2-0.8-3.51-1.86-4.65 c-2.59-2.8-7.41-3.52-11.06-2.2c-0.61,0.22-1.19,0.5-1.72,0.84c-1.5,0.96-2.72,2.35-3.2,4.08c-0.11,0.41-0.19,0.82-0.23,1.23 c-0.08,1.75-0.03,3.85,0.1,5.5c-0.16,0.06-0.3,0.13-0.42,0.22c-0.28,0.19-0.49,0.43-0.63,0.73c-0.13,0.28-0.19,0.6-0.18,0.95 c0.02,0.76,0.38,1.7,1.07,2.72l1.9,3.01c0.8,1.26,1.63,2.55,2.72,3.55c1.12,1.03,2.49,1.72,4.31,1.73c1.95,0.01,3.37-0.72,4.53-1.8 c1.12-1.05,1.96-2.42,2.8-3.79l2.16-3.56c0.01-0.02,0.02-0.04,0.03-0.05l0,0c0.58-1.32,0.71-2.23,0.41-2.82 C111.23,84.36,110.95,84.14,110.57,84.01L110.57,84.01L110.57,84.01z M48.85,111.7c-2.17-0.62-3.95,1.88-2.65,3.73 c0.32,0.47,0.81,0.81,1.35,0.96c1.66,0.46,3.31,0.82,5.01,1.12c0.95,0.15,1.91-0.26,2.43-1.07c0.97-1.46,0.09-3.47-1.64-3.74 C51.83,112.44,50.34,112.11,48.85,111.7L48.85,111.7z M65.47,112.96c-1.04,0.04-1.93,0.75-2.23,1.74 c-0.47,1.61,0.77,3.19,2.45,3.12c1.7-0.07,3.43-0.23,5.1-0.48c2.61-0.44,2.81-4.09,0.2-4.78c-0.31-0.08-0.62-0.08-0.94-0.04 C68.54,112.76,67.01,112.9,65.47,112.96L65.47,112.96z M99.98,61.83c0.6,2.19,3.57,2.46,4.56,0.4c0.24-0.55,0.29-1.07,0.15-1.65 c-0.43-1.64-0.96-3.3-1.57-4.88c-0.34-0.89-1.18-1.5-2.14-1.56c-1.77-0.1-3.04,1.66-2.41,3.31C99.12,58.87,99.6,60.35,99.98,61.83 L99.98,61.83z M92.79,47.59c1.54,2.29,5.08,0.75,4.39-1.99c-0.07-0.25-0.17-0.45-0.3-0.67c-0.93-1.44-1.92-2.81-3-4.15 c-1.58-1.95-4.77-0.52-4.28,2.04c0.09,0.38,0.24,0.71,0.49,1.02C91.05,45.05,91.95,46.29,92.79,47.59L92.79,47.59z M27.37,36.52 c0.56-0.54,0.8-1.28,0.72-2.05c-0.26-2-2.67-2.84-4.11-1.44c-1.23,1.18-2.4,2.43-3.5,3.74c-1.14,1.37-0.49,3.41,1.21,3.91 c0.95,0.25,1.88-0.04,2.52-0.78C25.21,38.7,26.26,37.59,27.37,36.52L27.37,36.52z M18.07,47.84c0.5-0.95,0.32-2.11-0.43-2.87 c-1.17-1.15-3.1-0.86-3.87,0.59c-0.81,1.51-1.52,3.04-2.17,4.63c-0.94,2.32,1.84,4.42,3.85,2.76c0.3-0.26,0.51-0.56,0.66-0.93 C16.69,50.59,17.34,49.21,18.07,47.84L18.07,47.84z M13.87,62.17c0.18-1.06-0.33-2.11-1.29-2.6c-1.45-0.73-3.23,0.14-3.5,1.75 c-0.31,1.7-0.49,3.38-0.63,5.1c-0.05,0.83,0.32,1.62,0.99,2.12c1.55,1.14,3.76,0.11,3.87-1.81C13.42,65.2,13.6,63.68,13.87,62.17 L13.87,62.17z M36.02,39.52h45.06v2.53H36.02V39.52L36.02,39.52z M59.13,6.77l-0.55,5.27h5.92l-0.55-5.27H59.13L59.13,6.77 L59.13,6.77z M43.57,0l-0.76,7.36h8.27L50.32,0H43.57L43.57,0L43.57,0z M42.67,8.76l-0.37,3.61h9.31l-0.37-3.61H42.67L42.67,8.76 L42.67,8.76z M42.15,13.77l-0.56,6.53l-3.48-0.64v18.6H79V26.08l-13.52-1.4l-0.5-8.05h-6.87l-0.33,6.64l-5.27-0.97l-0.77-8.53 H42.15L42.15,13.77L42.15,13.77z M58.48,13.04l-0.27,2.59h6.66l-0.27-2.59H58.48L58.48,13.04z M18.69,87.38 c4.12,0,7.46,3.34,7.46,7.46c0,4.12-3.34,7.46-7.46,7.46c-4.12,0-7.46-3.34-7.46-7.46C11.23,90.72,14.57,87.38,18.69,87.38 L18.69,87.38z"/></g></svg>