<?xml version="1.0" encoding="utf-8"?>
<!-- Uploaded to: SVG Repo, www.svgrepo.com, Generator: SVG Repo Mixer Tools -->
<svg fill="#000000" height="800px" width="800px" version="1.2" baseProfile="tiny" id="Layer_1" xmlns="http://www.w3.org/2000/svg" xmlns:xlink="http://www.w3.org/1999/xlink"
	  viewBox="0 0 203 256" xml:space="preserve">
<path d="M127.6,54.2l19-48.4H58l15.5,48.4H127.6z M102.3,252.3c53,0,96.2-43.2,96.2-96.2c0-37.4-21.3-69.7-52.4-85.8H57.4
	C26.3,86.4,5.6,118.7,5.6,156.1C5.6,209.1,48.7,252.3,102.3,252.3z M97.1,167.6c-14.4-4.6-24.2-11.5-24.2-24.8
	c0-12.1,8.6-21.3,23-24.2V106h13.2v12.1c9.2,0.6,15,2.3,19.6,4.6l-4,15c-3.5-1.7-9.8-4.6-19.6-4.6c-8.6,0-11.5,4-11.5,7.5
	c0,4.6,4.6,7.5,16.1,11.5c16.1,5.8,22.5,13.2,22.5,25.3c0,12.1-8.6,22.5-24.2,24.8V216H94.8v-12.7c-9.2-0.6-17.9-2.9-23-5.8l4-15.5
	c5.8,2.9,13.8,5.8,22.5,5.8c7.5,0,12.7-2.9,12.7-8.6C111.5,174,106.9,171.1,97.1,167.6z"/>
</svg>